<?xml version="1.0" standalone="no"?>
<!DOCTYPE svg PUBLIC "-//W3C//DTD SVG 1.1//EN" "http://www.w3.org/Graphics/SVG/1.1/DTD/svg11.dtd">
<svg version="1.1" id="svg2" width="1342.1739501953125" height="349.35400390625" viewBox="0 0 1342.1739 349.354" sodipodi:docname="Horizonte_tag_white_RGB.pdf" xmlns:inkscape="http://www.inkscape.org/namespaces/inkscape" xmlns:sodipodi="http://sodipodi.sourceforge.net/DTD/sodipodi-0.dtd" xmlns="http://www.w3.org/2000/svg" xmlns:svg="http://www.w3.org/2000/svg">
  <defs id="defs6">
    <clipPath clipPathUnits="userSpaceOnUse" id="clipPath20">
      <path d="M 0,425.197 H 1204.724 V 0 H 0 Z" id="path18"/>
    </clipPath>
  </defs>
  <sodipodi:namedview id="namedview4" pagecolor="#ffffff" bordercolor="#000000" borderopacity="0.25" inkscape:showpageshadow="2" inkscape:pageopacity="0.0" inkscape:pagecheckerboard="0" inkscape:deskcolor="#d1d1d1" showgrid="false"/>
  <g id="g10" inkscape:groupmode="layer" inkscape:label="Page 1" transform="matrix(1.3333333,0,0,-1.3333333,-132.06293,479.25652)">
    <g id="g14" style="fill:#ffffff" inkscape:export-filename="Horizonte_blanc.svg" inkscape:export-xdpi="96" inkscape:export-ydpi="96">
      <g id="g16" clip-path="url(#clipPath20)" style="fill:#ffffff">
        <g id="g22" transform="translate(180.7899,359.4424)" style="fill:#ffffff">
          <path d="m 0,0 c 0,-17.52 -13.603,-31.272 -31.125,-31.272 -17.52,0 -31.123,13.752 -31.123,31.272 z" style="fill:#ffffff;fill-opacity:1;fill-rule:nonzero;stroke:none" id="path24"/>
        </g>
        <g id="g26" transform="translate(170.7162,244.3008)" style="fill:#ffffff">
          <path d="M 0,0 H -42.102 V 44.444 H -71.669 V -72.497 h 29.567 v 46.608 H 0 V -72.497 H 29.57 V 44.444 H 0 Z" style="fill:#ffffff;fill-opacity:1;fill-rule:nonzero;stroke:none" id="path28"/>
        </g>
        <g id="g30" transform="translate(279.7919,197.1934)" style="fill:#ffffff">
          <path d="m 0,0 c -18.208,0 -27.397,14.868 -27.397,32.077 0,19.211 10.022,34.581 27.397,34.581 17.375,0 27.4,-15.37 27.4,-34.581 C 27.4,14.868 18.208,0 0,0 m 0,93.553 c -33.076,0 -56.967,-27.398 -56.967,-62.813 0,-24.895 15.202,-58.137 56.967,-58.137 41.765,0 56.967,33.242 56.967,58.137 0,35.415 -23.891,62.813 -56.967,62.813" style="fill:#ffffff;fill-opacity:1;fill-rule:nonzero;stroke:none" id="path32"/>
        </g>
        <g id="g34" transform="translate(408.3866,236.2852)" style="fill:#ffffff">
          <path d="M 0,0 H -22.217 V 25.224 H 0.837 c 9.853,0 15.37,-3.509 15.37,-11.861 C 16.207,5.014 10.359,0 0,0 m 45.943,13.531 c 0,23.723 -15.371,38.927 -42.265,38.927 h -54.629 v -116.94 h 28.734 v 38.255 h 7.852 l 24.89,-38.255 h 35.252 l -27.902,39.089 c 12.366,3.175 28.068,13.029 28.068,38.924" style="fill:#ffffff;fill-opacity:1;fill-rule:nonzero;stroke:none" id="path36"/>
        </g>
        <path d="m 482.521,171.802 h 29.57 v 116.94 h -29.57 z" style="fill:#ffffff;fill-opacity:1;fill-rule:nonzero;stroke:none" id="path38"/>
        <g id="g40" transform="translate(541.35,261.5108)" style="fill:#ffffff">
          <path d="M 0,0 H 51.119 L -1.505,-72.169 v -17.54 h 91.882 v 27.063 H 40.092 L 92.051,9.688 V 27.231 H 0 Z" style="fill:#ffffff;fill-opacity:1;fill-rule:nonzero;stroke:none" id="path42"/>
        </g>
        <g id="g44" transform="translate(702.6927,197.1934)" style="fill:#ffffff">
          <path d="m 0,0 c -18.211,0 -27.4,14.868 -27.4,32.077 0,19.211 10.025,34.581 27.4,34.581 17.372,0 27.397,-15.37 27.397,-34.581 C 27.397,14.868 18.206,0 0,0 m 0,93.553 c -33.079,0 -56.967,-27.398 -56.967,-62.813 0,-24.895 15.202,-58.137 56.967,-58.137 41.762,0 56.964,33.242 56.964,58.137 0,35.415 -23.891,62.813 -56.964,62.813" style="fill:#ffffff;fill-opacity:1;fill-rule:nonzero;stroke:none" id="path46"/>
        </g>
        <g id="g48" transform="translate(864.4662,198.6973)" style="fill:#ffffff">
          <path d="M 0,0 H -0.331 L -36.92,90.046 H -84.864 V -26.895 h 29.567 V 62.98 h 0.337 l 36.585,-89.875 H 29.573 V 90.046 H 0 Z" style="fill:#ffffff;fill-opacity:1;fill-rule:nonzero;stroke:none" id="path50"/>
        </g>
        <g id="g52" transform="translate(912.4003,261.5098)" style="fill:#ffffff">
          <path d="M 0,0 H 32.411 V -89.706 H 61.979 V 0 H 94.721 V 27.234 H 0 Z" style="fill:#ffffff;fill-opacity:1;fill-rule:nonzero;stroke:none" id="path54"/>
        </g>
        <g id="g56" transform="translate(1105.6776,261.5108)" style="fill:#ffffff">
          <path d="M 0,0 V 27.234 H -82.694 V -89.707 H 0 v 27.061 h -53.121 v 18.544 H 0 v 25.056 H -53.121 V 0 Z" style="fill:#ffffff;fill-opacity:1;fill-rule:nonzero;stroke:none" id="path58"/>
        </g>
        <g id="g60" transform="translate(352.2963,110.0137)" style="fill:#ffffff">
          <path d="m 0,0 c -1.336,-4.603 -3.527,-6.832 -6.859,-6.832 -4.754,0 -6.989,4.272 -6.989,8.802 0,5.158 2.847,9.132 7.196,9.132 3.246,0 5.029,-2.227 6.448,-5.718 h 0.287 l 4.189,4.382 c -1.588,3.379 -5.044,7.053 -10.924,7.053 -8.003,0 -13.286,-7.053 -13.286,-15.036 0,-6.534 3.491,-14.368 12.96,-14.368 6.248,0 10.517,3.601 12.261,8.686 L 0.29,0 Z" style="fill:#ffffff;fill-opacity:1;fill-rule:nonzero;stroke:none" id="path62"/>
        </g>
        <g id="g64" transform="translate(385.9731,103.1817)" style="fill:#ffffff">
          <path d="m 0,0 c -4.787,0 -7.267,3.938 -7.267,8.801 0,4.975 2.599,9.245 7.267,9.245 4.68,0 7.275,-4.233 7.275,-9.245 C 7.275,3.899 4.801,0 0,0 m 0,23.651 c -7.796,0 -13.354,-6.755 -13.354,-15.036 0,-6.945 3.944,-14.368 13.354,-14.368 9.431,0 13.366,7.423 13.366,14.368 0,8.281 -5.567,15.036 -13.366,15.036" style="fill:#ffffff;fill-opacity:1;fill-rule:nonzero;stroke:none" id="path66"/>
        </g>
        <g id="g68" transform="translate(414.6,97.9111)" style="fill:#ffffff">
          <path d="m 0,0 h 6.099 v 10.654 h 12.659 v 5.532 H 6.099 v 6.537 h 12.828 v 5.679 H 0 Z" style="fill:#ffffff;fill-opacity:1;fill-rule:nonzero;stroke:none" id="path70"/>
        </g>
        <g id="g72" transform="translate(451.7523,97.9111)" style="fill:#ffffff">
          <path d="m 0,0 h 6.099 v 10.654 h 12.663 v 5.532 H 6.099 v 6.537 h 12.828 v 5.679 H 0 Z" style="fill:#ffffff;fill-opacity:1;fill-rule:nonzero;stroke:none" id="path74"/>
        </g>
        <g id="g76" transform="translate(487.6415,97.9111)" style="fill:#ffffff">
          <path d="M 0,0 H 19.01 V 5.679 H 6.087 v 5.865 H 19.01 v 5.313 H 6.087 v 5.866 H 19.01 v 5.679 H 0 Z" style="fill:#ffffff;fill-opacity:1;fill-rule:nonzero;stroke:none" id="path78"/>
        </g>
        <g id="g80" transform="translate(524.2401,97.9111)" style="fill:#ffffff">
          <path d="M 0,0 H 19.01 V 5.679 H 6.099 v 5.865 H 19.01 v 5.313 H 6.099 v 5.866 H 19.01 v 5.679 H 0 Z" style="fill:#ffffff;fill-opacity:1;fill-rule:nonzero;stroke:none" id="path82"/>
        </g>
        <g id="g84" transform="translate(594.9872,113.5772)" style="fill:#ffffff">
          <path d="m 0,0 h -5.558 v 7.054 h 6.04 C 3.285,7.054 4.704,5.83 4.704,3.64 4.704,1.228 3.009,0 0,0 m 10.803,3.344 c 0,6.235 -4.426,9.392 -9.623,9.392 h -12.837 v -28.402 h 6.099 v 10.174 h 2.019 l 6.871,-10.174 h 7.627 L 3.37,-5.31 c 3.607,0.633 7.433,3.084 7.433,8.654" style="fill:#ffffff;fill-opacity:1;fill-rule:nonzero;stroke:none" id="path86"/>
        </g>
        <g id="g88" transform="translate(634.4354,103.1817)" style="fill:#ffffff">
          <path d="m 0,0 c -4.79,0 -7.267,3.938 -7.267,8.801 0,4.975 2.599,9.245 7.267,9.245 4.68,0 7.278,-4.233 7.278,-9.245 C 7.278,3.899 4.798,0 0,0 m 0,23.651 c -7.796,0 -13.354,-6.755 -13.354,-15.036 0,-6.945 3.944,-14.368 13.354,-14.368 9.431,0 13.366,7.423 13.366,14.368 0,8.281 -5.567,15.036 -13.366,15.036" style="fill:#ffffff;fill-opacity:1;fill-rule:nonzero;stroke:none" id="path90"/>
        </g>
        <g id="g92" transform="translate(671.2216,109.3457)" style="fill:#ffffff">
          <path d="M 0,0 3.861,11.584 H 4.053 L 7.917,0 Z m -0.085,16.968 -9.99,-28.403 h 6.297 l 2.031,6.125 H 9.662 l 2.069,-6.125 h 6.291 L 8.039,16.968 Z" style="fill:#ffffff;fill-opacity:1;fill-rule:nonzero;stroke:none" id="path94"/>
        </g>
        <g id="g96" transform="translate(715.5614,114.8399)" style="fill:#ffffff">
          <path d="m 0,0 c -3.081,0.816 -5.921,1.449 -5.921,3.565 0,1.746 1.297,2.822 3.609,2.822 3.45,0 6.256,-2.451 7.713,-4.9 h 0.287 l 2.88,5.012 c -1.256,2.19 -5.151,5.496 -10.924,5.496 -6.011,0 -9.665,-3.974 -9.665,-8.503 0,-5.309 3.693,-7.166 9.18,-8.576 4.63,-1.228 6.498,-1.821 6.498,-3.861 0,-2.191 -2.238,-2.711 -4.103,-2.711 -4.429,0 -7.714,3.007 -9.375,5.27 h -0.29 l -2.643,-5.753 c 2.031,-2.598 6.256,-5.274 12.187,-5.274 6.415,0 10.315,3.306 10.315,8.468 C 9.748,-3.379 5.931,-1.558 0,0" style="fill:#ffffff;fill-opacity:1;fill-rule:nonzero;stroke:none" id="path98"/>
        </g>
        <g id="g100" transform="translate(739.5052,120.6338)" style="fill:#ffffff">
          <path d="m 0,0 h 7.873 v -22.723 h 6.099 V 0 h 7.956 V 5.68 H 0 Z" style="fill:#ffffff;fill-opacity:1;fill-rule:nonzero;stroke:none" id="path102"/>
        </g>
        <g id="g104" transform="translate(777.4052,97.9111)" style="fill:#ffffff">
          <path d="M 0,0 H 19.013 V 5.679 H 6.099 v 5.865 h 12.914 v 5.313 H 6.099 v 5.866 h 12.914 v 5.679 H 0 Z" style="fill:#ffffff;fill-opacity:1;fill-rule:nonzero;stroke:none" id="path106"/>
        </g>
        <g id="g108" transform="translate(825.2303,113.5772)" style="fill:#ffffff">
          <path d="M 0,0 H -5.573 V 7.054 H 0.482 C 3.282,7.054 4.704,5.83 4.704,3.64 4.704,1.228 3.006,0 0,0 m 10.8,3.344 c 0,6.235 -4.426,9.392 -9.623,9.392 H -11.66 v -28.402 h 6.087 v 10.174 h 2.034 l 6.871,-10.174 h 7.627 L 3.367,-5.31 C 6.98,-4.677 10.8,-2.226 10.8,3.344" style="fill:#ffffff;fill-opacity:1;fill-rule:nonzero;stroke:none" id="path110"/>
        </g>
        <g id="g112" transform="translate(862.619,114.8399)" style="fill:#ffffff">
          <path d="m 0,0 c -3.081,0.816 -5.924,1.449 -5.924,3.565 0,1.746 1.3,2.822 3.612,2.822 3.45,0 6.256,-2.451 7.71,-4.9 h 0.29 l 2.877,5.012 c -1.254,2.19 -5.15,5.496 -10.924,5.496 -6.008,0 -9.665,-3.974 -9.665,-8.503 0,-5.309 3.699,-7.166 9.18,-8.576 4.633,-1.228 6.498,-1.821 6.498,-3.861 0,-2.191 -2.235,-2.711 -4.103,-2.711 -4.426,0 -7.711,3.007 -9.372,5.27 h -0.29 l -2.643,-5.753 c 2.031,-2.598 6.256,-5.274 12.186,-5.274 6.413,0 10.315,3.306 10.315,8.468 C 9.747,-3.379 5.931,-1.558 0,0" style="fill:#ffffff;fill-opacity:1;fill-rule:nonzero;stroke:none" id="path114"/>
        </g>
      </g>
    </g>
  </g>
</svg>