<?xml version="1.0" standalone="no"?>
<!DOCTYPE svg PUBLIC "-//W3C//DTD SVG 1.1//EN" "http://www.w3.org/Graphics/SVG/1.1/DTD/svg11.dtd">
<svg version="1.1" id="Ebene_1" xmlns="http://www.w3.org/2000/svg" xmlns:xlink="http://www.w3.org/1999/xlink" x="0px" y="0px" viewBox="0 0 220 220" style="enable-background:new 0 0 220 220;" xml:space="preserve" width="220" height="220">
<style type="text/css">
	.st0{fill:#FFFFFF;}
	.st1{fill:#E20E17;}
	.st2{fill:#D51317;}
</style>
<g id="Ebene_1_00000098922837055757786070000015537029411545033091_">
</g>
<g id="BSV-Logo-2018-Vektor">
	<path class="st0" d="M110.1,0C95.2,0,80.8,3,67.3,8.6c-13.1,5.5-24.9,13.4-35,23.6s-18.2,22-23.7,35.1C2.9,80.8,0,95.2,0,110.1   s3,29.3,8.6,42.8c5.5,13.1,13.4,24.9,23.6,35s21.9,18,35,23.6c13.5,5.8,28,8.6,42.8,8.6s29.3-3,42.8-8.6   c13.1-5.5,24.9-13.4,35-23.6s18.1-21.9,23.6-35c5.8-13.5,8.6-28,8.6-42.8s-3-29.3-8.6-42.8c-5.5-13.1-13.4-24.9-23.6-35   s-21.9-18-35-23.6C139.4,3,125,0,110.1,0L110.1,0z"/>
	<g>
		<g>
			<g>
				<path class="st1" d="M22.2,103"/>
			</g>
			<path d="M110.1,2.5C50.7,2.5,2.4,50.7,2.4,110.2s48.2,107.6,107.7,107.6s107.7-48.2,107.7-107.6S169.6,2.5,110.1,2.5z      M110.1,188.6c-43.3,0-78.4-35.2-78.4-78.4s35.2-78.4,78.4-78.4s78.4,35.2,78.4,78.4S153.4,188.6,110.1,188.6z"/>
		</g>
	</g>
	<ellipse class="st2" cx="110.1" cy="110.2" rx="75.9" ry="75.8"/>
	<path class="st0" d="M154.9,88.8h-12.6l7.8,62.2h16.4l7.8-62.2h-11.1l-2.3,19.6c-0.9,8-1.5,18.3-2,25.4c-0.3-7-0.9-17.5-1.9-25.4   L154.9,88.8z M127.5,136.1c0,2.6-0.3,3.5-2.3,3.5h-0.8c-2,0-2.3-0.9-2.3-3.5v-7.9h-11.6v9.4c0,10.6,2.5,13.8,12.3,13.8h5   c9.6,0,12.3-3.1,12.3-13.8v-3.9c0-9.1-3-12.5-9.5-17.9c-5.8-4.8-7.8-6.5-7.8-11.3v-1.1c0-2.4,0.3-3.3,2.4-3.3h0.7   c2,0,2.4,0.9,2.4,3.5v6.1h11.6v-7.5c0-10.6-2.5-13.8-12.3-13.8h-5c-9.8,0-12.3,3.1-12.3,13.8v2.5c0,9.1,3,12.5,9.4,17.9   c5.8,4.8,7.8,6.4,7.8,11.3C127.5,133.9,127.5,136.1,127.5,136.1z M70.4,109c0,2.5-0.3,3.5-2.3,3.5h-3.3v-11.9H68   c2,0,2.3,0.9,2.3,3.5V109z M67.9,124.1c2,0,2.3,0.9,2.3,3.5v8c0,2.6-0.3,3.5-2.3,3.5h-3.3v-15.1H67.9z M52.3,151h18.1   c9.9,0,12.3-3.1,12.3-13.8v-6.2c0-7.5-1.3-11.1-5.5-12.5c4.3-1.5,5.5-5.1,5.5-12.8v-3.1c0-10.6-2.5-13.8-12.3-13.8H52.3V151z"/>
	<path class="st0" d="M147.5,193c-0.6-1.5-1.5-2.6-3.1-3.1c-1.3-0.4-2.9-0.3-4.5,0.3c-1.9,0.7-3.1,1.7-4,3c-0.7,1.3-0.9,2.6-0.3,4   c0.6,1.4,1.4,2.4,2.5,3c1.3,0.6,2.9,0.6,4.5-0.1c0.4-0.1,0.9-0.3,1.3-0.6c-0.3,0.6-0.4,1.3-0.7,2.1c-0.3,0.9-0.7,1.9-1.1,3   l-0.1,0.4l3.4-1.1v-0.3C147.3,198.8,148.4,195.3,147.5,193z M142.5,197.2c-1.1,0.4-2,0.4-2.6,0.1c-0.6-0.3-1-0.7-1.1-1.3   c-0.6-1.4,0.3-2.6,2.1-3.4c0.6-0.1,1.1-0.3,1.7-0.3c1.1,0,1.9,0.6,2.3,1.5C145,195.2,144.4,196.6,142.5,197.2z"/>
	<path class="st0" d="M118,210c-1.4-0.1-2.5-0.4-3-0.6H115l-0.3-2.6l0.3,0.1c1.4,0.6,3,0.7,4.4,0.6c2.1-0.1,3.3-1.1,3.1-2.3   c0-0.4-0.1-2-4.3-1.5c-0.9,0.1-1.9,0.3-2.9,0.6l-0.9,0.1l-0.7-8.1h0.1l10-1l0.3,2.6l-7.4,0.7l0.3,2.9c0.6-0.1,1.3-0.3,2.1-0.3l0,0   c4-0.3,6.1,1,6.4,3.9c0.3,3-1.9,5-5.5,5.2C119.2,210,118.6,210,118,210z"/>
	<path class="st0" d="M101.5,196.6c-1-1-2.4-1.7-4.1-2c-3.1-0.6-6.5,0.6-7,4c-0.6,3.1,1.4,5.4,5,5.9c0.4,0.1,0.9,0.1,1.3,0.1   c-0.4,0.4-1,0.9-1.7,1.4c-0.7,0.6-1.5,1.3-2.4,2.1l-0.3,0.3l3.5,0.6l0,0c4-3.4,6.5-5.6,6.9-8.1C103,199.1,102.5,197.7,101.5,196.6z    M99.5,200.1c-0.3,1.4-1.5,2.1-3.5,1.9c-1.1-0.1-2-0.6-2.4-1.3c-0.3-0.4-0.4-1-0.4-1.7c0.3-1.5,1.5-2.1,3.5-1.9   c1,0.1,1.7,0.6,2.3,1.1C99.5,198.8,99.6,199.3,99.5,200.1z"/>
	<path class="st0" d="M75.4,204l-2.9-1.1l4-10l-4.3,0.1l1-2.6l5.4-0.4l2.1,0.9L75.4,204z"/>
	<path class="st0" d="M153.9,36.4l-2.4-1.1v-0.1l-2.4-10.5c0-0.3-0.1-0.6-0.1-0.7l-4,8l-2.6-1.3l6.2-12.5l2.4,1.1v0.1l2.5,10.6   c0,0.3,0.1,0.4,0.1,0.6l4-8l2.6,1.3L153.9,36.4z"/>
	<path class="st0" d="M75.8,27c-0.7-1.3-1.9-2-3.4-2c0.6-1,0.6-2.3,0.1-3.4c-0.6-1-1.4-1.7-2.5-1.9c-1.1-0.1-2.3,0.1-3.6,0.9   l-6.2,3.1l6.4,12.4l6.2-3.1C75.8,31.7,76.9,29.3,75.8,27z M65.4,27.5L64,24.7l3.1-1.5l0,0c0.6-0.3,1.1-0.4,1.7-0.3   c0.4,0,0.9,0.3,1,0.7c0.4,0.9-0.1,1.9-0.9,2.3L65.4,27.5z M72.7,29.8c-0.3,0.4-0.7,0.9-1.3,1.3L68,32.8l-1.4-3.1l3.5-1.9   c0.4-0.3,1-0.3,1.4-0.3s0.9,0.3,1.1,0.9C72.9,28.9,72.8,29.5,72.7,29.8z"/>
	<polygon class="st0" points="91.1,26.7 88.6,12.9 99.5,11 100,13.8 92.3,15 92.7,17.9 100.1,16.6 100.5,19.3 93.2,20.5 93.7,23.4    101.5,22.2 102,24.9  "/>
	<path class="st0" d="M129.9,17.3c0.4-2.9-1.5-5-5-5.5l-6.5-1l-2.1,13.9l3.1,0.4l0.6-4.2l3.4,0.6c0.6,0.1,0.9,0.4,1.1,1.1l1.3,3.4   l3.9,0.6l-1.9-4.4c-0.1-0.4-0.4-1-0.7-1.4C128.5,20.3,129.6,19,129.9,17.3z M126.6,17.1c-0.1,0.6-0.4,1.1-0.9,1.4   c-0.4,0.3-1,0.4-1.4,0.4l-3.6-0.6l0.7-4.4l3.1,0.4c0.9,0.1,1.5,0.4,2,1C126.6,16,126.7,16.4,126.6,17.1z"/>
	<g>
		<g>
			<g>
				<path class="st0" d="M138.4,80.8L138.4,80.8L138.4,80.8L138.4,80.8z"/>
				<path class="st0" d="M139,81.1l-0.6-0.3C138.5,80.8,139,81.1,139,81.1L139,81.1z"/>
				<path class="st0" d="M138.4,80.8L95.6,63.1l5.2-12.5l0,0l0,0c0.6-1.4-0.1-3.1-1.5-3.6s-3.1,0.1-3.6,1.5l0,0l0,0L88.2,66      l12.6,5.2l-6.6,16.1l12.9,5.4l6.6-16.1l23.2,9.6l0,0l-0.6-0.3c1.4,0.6,3.1-0.1,3.6-1.5C140.5,83.1,139.8,81.3,138.4,80.8z"/>
			</g>
			<path class="st0" d="M98.3,92l-5.1-2.1l-6.2,15l0,0l0,0c-0.6,1.4,0.1,3.1,1.5,3.6s3.1-0.1,3.6-1.5l0,0l0,0L98.3,92z"/>
			<path class="st0" d="M100.8,93l-14.1,34.2c-0.6,1.4,0.1,3.1,1.5,3.6s3.1-0.1,3.6-1.5l14.1-34.2L100.8,93z"/>
		</g>
		<path class="st0" d="M109.8,39.9c-2.9-1.1-5.9,0.1-7.2,3c-1.1,2.9,0.1,5.9,2.9,7.2c2.9,1.1,5.9-0.1,7.2-3    C113.9,44.2,112.6,41.2,109.8,39.9z M106.1,48.6c-2-0.9-2.9-3.1-2-5.1s3.1-2.9,5.1-2.1c2,0.7,2.9,3.1,2,5.1    C110.3,48.5,108.1,49.4,106.1,48.6z"/>
		<ellipse class="st0" cx="114.2" cy="62.3" rx="5.4" ry="5.4"/>
	</g>
</g>
</svg>